<?xml version="1.0" standalone="no"?>
<!DOCTYPE svg PUBLIC "-//W3C//DTD SVG 20010904//EN"
 "http://www.w3.org/TR/2001/REC-SVG-20010904/DTD/svg10.dtd">
<svg version="1.0" xmlns="http://www.w3.org/2000/svg"
 width="512.000000pt" height="512.000000pt" viewBox="0 0 512.000000 512.000000"
 preserveAspectRatio="xMidYMid meet">
<metadata>
Created by potrace 1.16, written by Peter Selinger 2001-2019
</metadata>
<g transform="translate(0.000000,512.000000) scale(0.100000,-0.100000)"
fill="#ffffff" stroke="none">
<path d="M3165 4894 c-44 -8 -91 -12 -105 -9 -20 5 -22 3 -10 -6 12 -8 7 -9
-20 -5 -19 3 -29 2 -23 -2 16 -10 -133 -55 -149 -46 -6 4 -8 3 -4 -4 8 -13
-29 -26 -45 -16 -8 5 -9 3 -4 -6 6 -10 4 -12 -9 -7 -9 4 -15 3 -12 -1 7 -12
-103 -64 -116 -56 -7 5 -8 2 -3 -6 6 -10 4 -12 -8 -7 -9 3 -19 1 -23 -5 -5 -7
-2 -8 7 -4 8 4 5 0 -6 -8 -11 -9 -25 -14 -32 -12 -7 3 -15 0 -19 -6 -5 -7 -2
-8 6 -3 9 6 11 4 6 -4 -5 -7 -14 -10 -22 -7 -7 3 -16 0 -20 -6 -4 -7 -3 -8 4
-4 25 15 10 -3 -15 -20 -20 -12 -25 -13 -18 -3 6 8 -1 3 -15 -11 -14 -14 -21
-19 -16 -10 5 8 -8 -4 -30 -28 -21 -24 -47 -44 -57 -46 -21 -3 -158 -136 -151
-147 2 -4 -8 -20 -22 -36 -15 -15 -20 -19 -13 -8 13 18 13 19 -3 6 -10 -7 -16
-17 -13 -21 2 -4 -3 -16 -11 -26 -9 -10 -12 -12 -8 -4 4 8 3 11 -1 7 -5 -4
-10 -14 -11 -21 -2 -15 -34 -66 -41 -66 -2 0 -1 5 3 12 4 7 3 8 -4 4 -6 -4 -8
-14 -5 -23 4 -11 3 -14 -6 -9 -8 6 -11 2 -9 -10 2 -11 -2 -18 -9 -17 -8 2 -10
-4 -6 -14 4 -10 2 -14 -4 -10 -6 4 -10 -1 -9 -11 0 -9 -5 -16 -12 -14 -8 1
-11 -2 -8 -7 8 -12 -4 -42 -14 -36 -4 2 -12 -7 -19 -21 -7 -16 -7 -23 -1 -19
6 4 4 -10 -4 -30 -9 -21 -16 -39 -16 -42 0 -2 -5 -1 -12 3 -7 4 -8 3 -4 -5 9
-14 -2 -53 -14 -46 -4 3 -11 -2 -14 -11 -9 -24 -7 -31 5 -14 9 12 10 11 4 -5
-4 -11 -19 -67 -33 -125 -15 -58 -29 -106 -32 -108 -3 -1 -4 -17 -2 -35 2 -22
-2 -38 -12 -46 -9 -8 -15 -25 -15 -40 1 -26 1 -26 10 4 6 22 7 13 4 -30 -5
-56 -5 -154 -2 -270 1 -27 6 -53 10 -56 5 -3 9 -39 10 -79 2 -48 6 -75 15 -78
6 -2 12 -11 12 -20 0 -15 -2 -15 -10 -2 -6 9 -10 10 -10 3 0 -7 6 -16 14 -20
8 -4 18 -24 24 -43 5 -19 13 -44 18 -54 6 -15 4 -18 -7 -12 -9 5 -9 3 2 -6 21
-18 54 -102 37 -93 -7 4 -6 1 3 -7 24 -19 61 -97 53 -110 -5 -7 -3 -8 6 -3 10
6 12 4 7 -9 -5 -11 -3 -15 5 -10 8 5 9 2 5 -9 -4 -10 -2 -16 6 -14 7 1 11 -6
11 -15 -1 -10 3 -15 9 -11 6 4 8 0 4 -10 -3 -9 -1 -19 5 -23 7 -5 8 -2 3 6 -6
9 -4 11 4 6 7 -5 10 -14 7 -22 -3 -7 0 -16 6 -20 7 -4 8 -3 4 4 -15 25 3 10
20 -15 17 -27 17 -28 -2 -13 -10 8 1 -4 24 -27 28 -26 41 -46 36 -54 -4 -7 -3
-10 4 -5 13 8 73 -64 65 -77 -3 -6 -2 -7 4 -4 13 8 66 -47 56 -57 -5 -4 -3 -6
3 -4 18 5 76 -41 68 -54 -4 -6 -3 -8 3 -5 5 3 20 -4 34 -16 14 -12 18 -17 9
-12 -13 9 -13 8 -1 -7 7 -10 18 -15 24 -11 5 3 22 -7 36 -23 14 -17 22 -23 16
-15 -7 10 -2 9 18 -3 25 -17 40 -35 15 -20 -7 4 -8 3 -4 -4 4 -6 12 -9 19 -6
7 2 21 -3 32 -12 11 -8 14 -12 6 -8 -9 4 -12 3 -7 -4 4 -6 14 -8 23 -5 11 4
14 3 9 -5 -5 -8 -1 -10 10 -5 13 5 15 3 9 -7 -5 -8 -4 -11 3 -6 14 9 123 -45
115 -57 -3 -6 -1 -7 6 -3 16 10 102 -24 94 -37 -3 -6 -1 -7 5 -3 16 9 93 -15
85 -27 -3 -5 3 -6 16 -2 25 8 64 -3 56 -16 -4 -5 1 -9 10 -9 9 0 13 4 10 10
-3 6 1 7 9 4 9 -3 16 -10 16 -15 0 -5 5 -9 11 -9 5 0 7 5 3 11 -4 7 0 9 12 6
56 -15 80 -20 93 -18 7 1 10 -2 6 -8 -4 -7 6 -11 27 -10 28 0 30 2 13 10 -14
6 -6 7 25 3 25 -4 53 -10 62 -15 9 -5 34 -8 55 -7 l38 1 -45 7 c-40 7 -37 8
28 7 39 0 75 3 79 6 3 4 22 6 42 6 l36 -1 -30 -8 c-28 -7 -28 -8 -5 -8 14 -1
34 5 44 13 23 17 40 20 31 5 -9 -15 21 -12 34 4 12 15 74 28 65 14 -3 -4 1 -8
10 -8 8 0 16 5 18 11 2 6 38 21 80 34 43 12 75 18 72 13 -6 -10 5 -9 31 2 13
6 15 9 5 9 -13 1 -13 2 0 11 20 13 33 13 24 -1 -4 -8 0 -8 15 0 11 7 21 17 21
23 0 5 9 8 20 5 11 -3 18 -2 15 3 -3 4 2 11 11 14 8 3 12 2 9 -4 -3 -6 1 -7 9
-4 9 3 14 10 11 14 -3 4 2 11 11 14 8 3 12 2 9 -4 -3 -6 1 -7 9 -4 9 3 13 11
9 17 -4 6 0 8 11 4 10 -4 15 -3 11 3 -7 11 32 33 45 25 5 -3 12 0 16 6 4 8 3
9 -4 5 -7 -4 -12 -5 -12 -2 0 3 10 10 21 17 16 8 20 8 14 -1 -15 -25 32 9 49
35 11 16 23 24 32 21 10 -4 54 34 127 107 62 62 81 79 42 37 l-70 -75 77 74
c42 41 75 78 72 82 -2 4 8 20 22 36 15 15 20 19 13 8 -13 -18 -13 -19 3 -6 10
7 16 17 13 21 -2 4 3 16 11 26 9 10 12 13 8 5 -5 -9 -3 -12 5 -7 6 4 9 11 6
15 -2 5 3 17 11 27 9 10 12 12 8 4 -4 -9 -3 -12 2 -7 5 5 9 16 9 25 0 9 5 16
12 15 7 -2 10 3 7 11 -3 8 0 17 7 22 8 5 10 3 4 -6 -5 -8 -4 -11 3 -6 6 4 8
14 5 23 -4 10 -2 14 4 10 6 -4 10 1 9 11 0 9 4 16 11 15 8 -2 10 4 6 14 -4 11
-3 14 5 9 8 -5 10 -1 5 10 -5 13 -3 15 7 9 8 -5 11 -4 7 3 -9 14 3 43 14 36 5
-3 6 3 2 12 -4 12 -3 15 5 10 8 -5 10 -1 5 10 -4 12 -3 15 5 10 8 -5 10 -1 5
10 -3 10 -2 15 3 12 5 -4 10 4 10 15 3 34 71 221 76 207 2 -7 4 4 4 26 0 21 8
84 17 139 34 205 15 473 -48 673 -14 45 -23 87 -19 94 4 6 3 8 -4 4 -13 -8
-26 29 -16 45 4 7 3 9 -3 6 -14 -9 -37 48 -27 64 5 8 3 9 -6 4 -10 -6 -12 -4
-7 9 4 10 3 15 -3 11 -12 -8 -43 52 -34 67 5 7 3 8 -6 3 -10 -6 -12 -4 -7 9 4
10 3 15 -3 11 -11 -7 -33 32 -25 45 3 5 0 12 -6 16 -8 5 -9 3 -4 -6 6 -9 4
-11 -4 -6 -7 5 -10 14 -7 22 3 7 0 16 -6 20 -7 5 -8 2 -3 -6 6 -9 4 -11 -4 -6
-7 5 -10 14 -7 22 3 7 0 16 -6 20 -7 5 -8 2 -3 -7 8 -12 6 -12 -9 0 -9 8 -15
20 -12 27 3 7 -3 18 -12 26 -16 12 -16 11 -2 -7 15 -20 15 -20 -8 -1 -12 11
-21 25 -18 32 2 6 -10 25 -27 40 l-32 29 25 -31 c14 -17 4 -8 -23 20 -26 28
-67 68 -90 91 -24 22 -32 31 -18 20 l26 -20 -24 27 c-13 15 -27 25 -32 23 -4
-3 -18 5 -31 17 -16 15 -17 18 -3 8 20 -15 20 -15 1 7 -10 13 -23 20 -29 16
-5 -3 -22 7 -36 23 -14 17 -21 23 -16 15 7 -10 2 -9 -17 3 -26 17 -41 35 -16
20 7 -4 8 -3 4 4 -4 6 -13 9 -20 6 -8 -3 -17 0 -22 7 -5 8 -3 10 6 4 9 -5 11
-4 6 4 -4 6 -11 9 -16 6 -13 -8 -72 24 -65 35 4 6 -1 7 -11 3 -12 -4 -15 -3
-10 5 5 8 1 10 -10 5 -12 -4 -15 -3 -10 5 5 8 1 10 -10 5 -13 -5 -15 -3 -9 7
5 9 4 11 -4 6 -16 -10 -73 13 -64 27 3 5 1 7 -5 4 -5 -4 -57 9 -115 28 -211
71 -505 95 -712 59z m330 -235 c5 -5 20 -9 35 -8 23 0 23 1 5 9 -18 8 -18 9
-2 9 42 2 222 -41 230 -55 4 -8 13 -14 18 -14 6 0 8 4 4 10 -3 5 18 1 47 -9
77 -27 108 -43 102 -52 -3 -5 2 -6 10 -3 18 7 59 -14 51 -26 -4 -6 1 -7 11 -3
12 4 15 3 10 -5 -4 -7 -2 -10 6 -7 8 3 22 -2 33 -11 11 -8 14 -13 8 -9 -22 11
-14 -4 8 -16 17 -9 20 -8 14 1 -10 17 53 -21 68 -40 11 -13 10 -13 -8 0 -19
14 -19 14 -6 -2 7 -10 18 -15 24 -11 5 3 28 -14 51 -39 23 -24 32 -33 22 -19
-11 15 17 -11 63 -56 46 -45 80 -86 77 -91 -3 -6 2 -16 12 -23 16 -13 16 -12
2 6 -15 20 -15 20 8 1 12 -11 20 -26 18 -33 -3 -7 0 -15 6 -19 7 -4 8 -3 4 4
-4 7 -5 12 -2 12 12 0 58 -79 52 -89 -4 -5 -1 -13 5 -17 8 -4 9 -3 5 4 -4 7
-5 12 -3 12 9 0 68 -112 63 -118 -3 -3 -6 -1 -6 4 0 6 -7 19 -15 30 -12 15
-12 11 1 -18 10 -20 21 -35 24 -33 4 3 17 -17 29 -44 23 -54 27 -75 10 -51 -9
12 -10 12 -5 -3 3 -10 6 -24 6 -30 0 -7 4 -6 10 3 6 9 10 10 10 3 0 -6 3 -20
6 -30 5 -15 4 -15 -5 -3 -7 9 -11 11 -11 3 0 -7 6 -16 14 -20 7 -4 21 -40 30
-80 16 -74 20 -117 6 -73 -6 20 -8 21 -9 6 -1 -11 5 -27 13 -35 18 -20 25
-172 15 -296 -11 -123 -38 -242 -51 -224 -7 10 -8 8 -3 -9 7 -25 -22 -125 -35
-117 -4 3 -11 -2 -14 -11 -3 -8 -2 -12 4 -9 13 8 13 2 -1 -29 -7 -14 -16 -23
-22 -19 -6 3 -7 1 -3 -5 8 -13 -14 -63 -25 -56 -5 3 -6 -3 -2 -12 4 -11 2 -15
-4 -11 -6 4 -10 -1 -9 -11 0 -9 -4 -16 -11 -15 -8 2 -10 -4 -6 -14 4 -10 2
-14 -4 -10 -6 4 -10 -1 -9 -11 0 -9 -5 -16 -12 -14 -8 1 -11 -2 -7 -8 6 -9
-79 -130 -92 -130 -3 0 2 10 13 23 l19 22 -22 -19 c-13 -10 -20 -23 -17 -28 8
-12 -112 -132 -124 -124 -5 3 -18 -4 -28 -17 l-19 -22 25 20 c18 15 21 16 11
3 -25 -32 -179 -131 -192 -123 -8 5 -10 4 -5 -3 8 -14 -90 -66 -111 -58 -8 3
-11 2 -8 -3 7 -12 -31 -24 -46 -15 -7 4 -9 3 -5 -4 9 -14 -87 -45 -116 -37
-17 4 -19 4 -9 -3 28 -20 -177 -52 -329 -52 -148 0 -388 41 -359 62 10 7 7 7
-8 3 -27 -7 -66 3 -58 15 3 4 -3 6 -13 3 -27 -7 -241 104 -281 146 -19 20 -28
27 -20 16 13 -19 13 -19 -6 -5 -11 8 -45 39 -75 70 -30 31 -39 38 -20 16 19
-23 -8 0 -59 51 -51 51 -90 96 -87 102 4 5 1 13 -5 17 -8 5 -9 3 -4 -7 8 -12
6 -12 -8 0 -10 7 -16 21 -15 30 2 8 -4 16 -12 16 -8 0 -14 8 -14 17 1 10 -3
16 -10 15 -6 -1 -10 6 -10 15 1 10 -3 15 -9 11 -6 -4 -8 0 -4 10 4 10 2 16 -6
14 -7 -1 -11 6 -11 15 1 10 -3 15 -9 11 -6 -4 -8 0 -4 11 4 9 3 15 -2 12 -12
-8 -84 151 -77 170 3 8 2 12 -3 9 -13 -8 -24 30 -16 58 4 15 3 18 -3 9 -21
-31 -62 207 -62 358 0 138 33 358 49 332 3 -6 7 6 7 26 1 45 42 155 55 147 5
-4 6 0 3 8 -8 21 44 119 58 111 7 -5 8 -3 3 5 -8 13 91 167 123 192 13 10 12
7 -3 -11 l-20 -25 22 19 c13 10 20 22 18 26 -3 5 6 22 20 38 32 39 157 145
130 111 -11 -14 -2 -7 19 15 22 23 35 34 30 26 -5 -9 2 -4 16 11 33 35 77 62
89 55 5 -4 13 -1 17 5 4 8 3 9 -4 5 -7 -4 -12 -5 -12 -2 0 3 14 13 31 22 17 8
28 11 25 5 -4 -7 -1 -8 8 -5 9 3 14 9 11 14 -2 4 7 12 21 19 20 9 24 9 19 -1
-4 -7 0 -5 9 6 9 11 22 16 31 12 9 -3 14 -2 10 3 -8 14 105 53 134 46 17 -4
21 -3 13 3 -15 10 32 24 118 37 25 3 53 9 64 12 12 3 16 1 12 -6 -5 -7 4 -11
26 -10 29 2 30 2 8 7 -20 5 -14 8 25 13 60 8 166 1 180 -12z"/>
<path d="M2110 2353 c-8 -3 -23 -14 -34 -24 -10 -10 -22 -16 -26 -14 -4 2 -27
-17 -51 -43 l-44 -47 45 40 c41 35 40 34 -7 -13 -29 -29 -57 -51 -61 -48 -5 3
-29 -16 -53 -42 l-44 -47 46 40 c28 25 23 18 -13 -18 -33 -32 -63 -55 -67 -53
-4 3 -28 -16 -52 -42 l-44 -47 46 40 c35 31 33 28 -9 -13 -29 -29 -57 -50 -61
-48 -4 3 -28 -16 -52 -42 l-44 -47 45 40 c41 36 40 35 -5 -9 -129 -126 -186
-177 -194 -172 -4 3 -25 -14 -47 -37 l-39 -42 41 35 c22 19 16 11 -14 -18 -29
-29 -57 -50 -61 -48 -4 3 -28 -16 -52 -42 l-44 -47 45 40 c41 36 40 35 -5 -9
-129 -126 -186 -177 -194 -172 -4 3 -28 -16 -52 -42 l-44 -47 46 40 c35 31 33
28 -9 -13 -29 -29 -57 -50 -61 -48 -4 3 -28 -16 -52 -42 l-44 -47 46 40 c35
31 33 28 -9 -13 -29 -29 -57 -50 -61 -48 -4 3 -28 -16 -52 -42 l-44 -47 46 40
c28 25 23 18 -13 -18 -33 -32 -63 -55 -67 -53 -4 3 -28 -16 -52 -42 l-44 -47
46 40 c36 32 34 29 -8 -12 -30 -29 -58 -52 -62 -50 -5 1 -61 -51 -124 -117
-63 -65 -119 -116 -124 -113 -5 4 -27 -13 -49 -36 l-39 -42 40 35 c27 23 23
17 -12 -19 -59 -60 -64 -80 -33 -141 11 -22 20 -46 20 -54 0 -8 5 -18 12 -22
7 -5 8 -3 3 6 -5 9 -4 11 3 6 7 -4 12 -15 12 -25 0 -9 15 -30 32 -47 l33 -29
-25 31 c-14 17 13 -8 60 -55 47 -47 78 -77 70 -66 -15 19 -15 19 11 0 15 -11
25 -23 22 -27 -2 -4 3 -5 11 -2 10 4 16 1 16 -7 0 -10 16 -15 50 -17 49 -3 52
-1 103 51 28 29 36 35 17 13 l-35 -41 42 39 c23 22 40 42 38 46 -3 4 21 34 53
67 31 33 41 41 22 19 l-35 -41 42 39 c23 22 40 43 37 47 -2 4 21 34 53 67 36
36 43 41 18 13 l-40 -46 47 44 c26 24 45 48 42 53 -3 4 19 32 48 61 47 47 48
48 13 7 l-40 -45 47 44 c26 24 45 48 42 52 -2 4 19 32 48 61 41 42 44 44 13 9
l-40 -46 47 44 c26 24 45 48 42 52 -2 4 19 32 48 61 41 42 44 44 13 9 l-40
-46 47 44 c26 24 45 48 42 52 -2 4 19 32 48 61 29 30 37 36 18 14 l-35 -41 42
39 c23 22 40 43 37 47 -2 4 21 34 53 67 36 36 43 41 18 13 l-40 -46 47 44 c26
24 45 48 42 53 -3 5 21 34 53 66 42 42 47 46 18 12 l-40 -45 47 44 c26 24 45
48 42 53 -3 4 19 32 48 61 47 47 48 48 13 7 l-40 -45 47 44 c26 24 45 48 42
53 -3 4 19 32 48 61 35 35 41 39 18 12 l-35 -40 42 39 c23 22 40 43 37 47 -2
4 19 32 48 61 41 42 44 44 13 9 l-40 -46 47 44 c26 24 45 48 42 52 -2 4 21 34
53 67 36 36 43 41 18 13 l-40 -46 47 44 c26 24 45 48 42 52 -2 4 19 32 48 61
29 30 37 36 18 14 l-35 -41 42 39 c23 22 40 43 37 47 -2 4 19 32 48 61 29 30
37 36 18 14 l-35 -41 42 39 c23 21 41 42 40 45 -3 11 24 52 31 47 4 -2 8 4 8
14 0 10 -5 16 -10 13 -5 -4 -7 1 -3 10 4 10 2 16 -6 14 -7 -1 -12 6 -12 15 0
10 -7 23 -15 30 -12 11 -12 10 -1 -7 7 -11 -3 -2 -22 20 -20 22 -53 56 -74 75
-22 19 -30 28 -18 20 20 -15 20 -15 2 7 -11 12 -25 19 -32 17 -7 -3 -16 0 -21
7 -5 8 -3 10 6 4 8 -5 11 -4 6 3 -4 6 -14 8 -23 5 -11 -4 -14 -3 -9 5 8 13 8
13 -14 5z"/>
</g>
</svg>
